<svg width="28" height="28" viewBox="0 0 28 28" fill="none" xmlns="http://www.w3.org/2000/svg">
<g clip-path="url(#clip0_3_647)">
<path fill-rule="evenodd" clip-rule="evenodd" d="M25.5771 11.0901C25.557 12.4493 25.5393 13.6464 26.2225 15.0623C26.2225 15.0623 28.2421 16.8793 27.9758 18.337C27.7095 19.7948 25.0794 20.1962 25.0794 20.1962C25.0794 26.0861 19.4549 25.7111 16.6476 25.1572C16.5909 25.146 16.5352 25.1347 16.4808 25.1234C15.6407 24.9489 15.0921 24.7689 15.0921 24.7689V25.8758C15.0921 25.8758 15.0336 26.0612 14.8532 26.3222C14.8053 26.3916 14.7488 26.4663 14.6824 26.5442C14.1557 27.1632 13.0114 27.9885 10.6532 27.9885C8.87662 28.1292 5.83574 26.9662 5.02965 25.3265V20.3112C2.18883 18.1879 0 15.3276 0 11.6198C0 8.53805 1.28607 5.5825 3.57529 3.4034C5.86452 1.22424 8.96933 1.03728e-05 12.2068 1.03728e-05C14.6791 -0.0026574 17.122 0.509299 19.3644 1.50002C21.1317 2.20843 22.6789 3.33581 23.8588 4.7747C24.9362 6.28623 25.5333 8.06128 25.5788 9.88742C25.5886 10.307 25.5827 10.7052 25.5771 11.0901ZM16.6829 12.3513C16.5617 12.487 16.4985 12.5578 16.1178 12.5578C15.5167 12.5578 14.9294 12.3813 14.4329 12.0514C14.0843 12.4109 13.6568 12.6894 13.1825 12.8661C13.122 12.8951 13.0665 12.9259 13.0149 12.9586C12.7459 13.1293 12.5867 13.3497 12.4238 13.6095C12.3961 13.6537 12.3682 13.6991 12.3397 13.7455C12.2989 13.8119 12.2566 13.8809 12.2115 13.9516C11.9137 14.4182 11.7562 14.9567 11.7569 15.506V18.5996H8.55555C8.47498 17.9369 8.32362 17.3001 7.95682 16.7362C7.5901 16.1723 7.09808 15.6955 6.517 15.341C6.01269 15.13 5.57729 14.7889 5.25785 14.3545C4.9385 13.9201 4.74724 13.409 4.70493 12.8764C4.18001 12.3356 3.88795 11.6197 3.88897 10.8758C3.88492 10.2345 4.10122 9.61014 4.50357 9.10218C4.42952 8.8508 4.39382 8.59017 4.39763 8.32875C4.39662 7.70342 4.60203 7.09434 4.98353 6.5912L6.517 5.53412C6.75228 5.01939 7.13556 4.58189 7.62074 4.27443C8.10584 3.96706 8.67206 3.80287 9.25096 3.8017C9.49013 3.8031 9.72829 3.83079 9.961 3.88415C10.4535 3.43762 11.0861 3.16532 11.7569 3.11111L15.015 3.33192C15.734 3.5049 16.3625 3.92902 16.7812 4.52356H16.9932L18.8756 5.1646C19.4095 5.58102 19.7811 6.16264 19.9285 6.81287C20.5745 7.08579 21.1046 7.5663 21.43 8.17413C21.7554 8.78189 21.8565 9.48002 21.7162 10.1516C21.5759 10.8232 21.2029 11.4276 20.6595 11.8635L18.7311 12.5464C18.124 12.5533 17.5291 12.3807 17.0249 12.0514C16.8429 12.1724 16.7532 12.2728 16.6829 12.3513ZM21.7778 15.1667C21.7778 15.811 21.2554 16.3333 20.6111 16.3333C19.9668 16.3333 19.4444 15.811 19.4444 15.1667C19.4444 14.5224 19.9668 14 20.6111 14C21.2554 14 21.7778 14.5224 21.7778 15.1667ZM11.6667 20.2222V21.7778H8.55555V20.2222H11.6667ZM8.55555 23.3333V24.8889H11.6667V23.3333H8.55555Z" fill="#063A35"/>
</g>
<defs>
<clipPath id="clip0_3_647">
<rect width="28" height="28" fill="white"/>
</clipPath>
</defs>
</svg>
