<svg width="180" height="180" viewBox="0 0 180 180" fill="none" xmlns="http://www.w3.org/2000/svg">
<rect width="180" height="180" rx="46" fill="#FF2D55"/>
<path d="M29.1385 34.9237H38.3464C44.485 34.9237 48.6358 35.1606 50.7987 35.6343C52.9823 36.1081 54.7538 37.3235 56.1134 39.2804C57.4935 41.2168 58.1836 44.317 58.1836 48.581C58.1836 52.4743 57.6995 55.0904 56.7313 56.4294C55.7632 57.7684 53.8577 58.5717 51.015 58.8395C53.5899 59.4781 55.3203 60.333 56.2061 61.4041C57.0918 62.4753 57.6377 63.4641 57.8437 64.3705C58.0703 65.2562 58.1836 67.7178 58.1836 71.7553V84.9492H46.1021V68.3255C46.1021 65.6476 45.8858 63.9894 45.4532 63.3508C45.0412 62.7122 43.9391 62.3929 42.147 62.3929V84.9492H29.1385V34.9237ZM42.147 43.4827V54.6064C43.6095 54.6064 44.6292 54.4107 45.206 54.0193C45.8034 53.6073 46.1021 52.2992 46.1021 50.0951V47.3451C46.1021 45.7589 45.8137 44.7187 45.2369 44.2243C44.6807 43.7299 43.6507 43.4827 42.147 43.4827ZM91.1529 65.1738H74.9927V74.0419C74.9927 75.8958 75.1266 77.0906 75.3944 77.6261C75.6622 78.1617 76.1771 78.4295 76.9393 78.4295C77.8869 78.4295 78.5152 78.0793 78.8242 77.379C79.1537 76.658 79.3185 75.2778 79.3185 73.2385V67.8311H91.1529V70.8593C91.1529 73.393 90.9881 75.3396 90.6585 76.6992C90.3495 78.0587 89.6079 79.511 88.4338 81.0559C87.2596 82.6009 85.7661 83.7648 83.9534 84.5475C82.1613 85.3097 79.9056 85.6908 77.1865 85.6908C74.5498 85.6908 72.2221 85.3097 70.2033 84.5475C68.1846 83.7854 66.6087 82.7451 65.4758 81.4267C64.3634 80.0878 63.5909 78.6252 63.1583 77.0391C62.7258 75.4323 62.5095 73.1046 62.5095 70.0559V58.0979C62.5095 54.5137 62.9935 51.6915 63.9617 49.6316C64.9299 47.5511 66.516 45.9649 68.7202 44.8732C70.9243 43.7608 73.458 43.2046 76.3213 43.2046C79.8232 43.2046 82.7071 43.8741 84.9731 45.213C87.2596 46.5314 88.856 48.2926 89.7624 50.4968C90.6894 52.6803 91.1529 55.7599 91.1529 59.7356V65.1738ZM78.6388 58.4996V55.5024C78.6388 53.3807 78.5255 52.0108 78.2989 51.3929C78.0723 50.7749 77.6088 50.4659 76.9084 50.4659C76.0432 50.4659 75.5077 50.7337 75.3017 51.2693C75.0957 51.7842 74.9927 53.1953 74.9927 55.5024V58.4996H78.6388ZM123.659 34.9237V84.9492H111.175V81.9829C109.981 83.2189 108.724 84.1458 107.406 84.7638C106.087 85.3818 104.707 85.6908 103.265 85.6908C101.329 85.6908 99.6501 85.1861 98.2288 84.1767C96.8074 83.1468 95.8907 81.9623 95.4787 80.6234C95.0874 79.2844 94.8917 77.1009 94.8917 74.0728V54.8844C94.8917 51.7327 95.0874 49.4977 95.4787 48.1794C95.8907 46.861 96.8177 45.7074 98.2597 44.7187C99.7016 43.7093 101.422 43.2046 103.42 43.2046C104.965 43.2046 106.376 43.4827 107.653 44.0389C108.951 44.5951 110.125 45.4293 111.175 46.5417V34.9237H123.659ZM111.175 54.2665C111.175 52.7627 111.042 51.7533 110.774 51.2384C110.527 50.7234 110.022 50.4659 109.26 50.4659C108.518 50.4659 108.013 50.7028 107.746 51.1766C107.498 51.6297 107.375 52.6597 107.375 54.2665V74.3508C107.375 76.0194 107.498 77.1215 107.746 77.657C107.993 78.172 108.467 78.4295 109.167 78.4295C109.97 78.4295 110.506 78.1411 110.774 77.5643C111.042 76.967 111.175 75.525 111.175 73.2385V54.2665ZM56.7004 113.064H44.6189V109.356C44.6189 107.626 44.4644 106.524 44.1554 106.05C43.8464 105.576 43.3315 105.339 42.6105 105.339C41.8277 105.339 41.2303 105.659 40.8183 106.297C40.4269 106.936 40.2312 107.904 40.2312 109.202C40.2312 110.87 40.4578 112.127 40.911 112.971C41.3436 113.816 42.5693 114.836 44.588 116.031C50.3764 119.471 54.0225 122.293 55.5263 124.497C57.03 126.701 57.7819 130.254 57.7819 135.157C57.7819 138.721 57.3596 141.347 56.515 143.036C55.6911 144.725 54.0843 146.147 51.6948 147.3C49.3053 148.433 46.5244 149 43.3521 149C39.8708 149 36.8941 148.341 34.4222 147.022C31.9709 145.704 30.3642 144.025 29.602 141.986C28.8398 139.946 28.4587 137.052 28.4587 133.303V130.028H40.5402V136.115C40.5402 137.989 40.705 139.194 41.0346 139.73C41.3848 140.266 41.9925 140.533 42.8577 140.533C43.7228 140.533 44.3614 140.194 44.7734 139.514C45.206 138.834 45.4223 137.825 45.4223 136.486C45.4223 133.54 45.0206 131.614 44.2172 130.708C43.3932 129.801 41.3642 128.287 38.1301 126.165C34.896 124.023 32.7537 122.468 31.7031 121.5C30.6525 120.531 29.7771 119.193 29.0767 117.483C28.3969 115.773 28.057 113.589 28.057 110.932C28.057 107.101 28.5411 104.299 29.5093 102.528C30.498 100.756 32.0842 99.3759 34.2677 98.3871C36.4513 97.3778 39.088 96.8731 42.1779 96.8731C45.5562 96.8731 48.4298 97.419 50.7987 98.5107C53.1882 99.6025 54.7641 100.983 55.5263 102.651C56.3091 104.299 56.7004 107.111 56.7004 111.087V113.064ZM87.6613 106.946L84.077 136.609C83.5208 141.306 83.047 144.509 82.6556 146.219C82.2849 147.929 81.6566 149.34 80.7708 150.452C79.885 151.564 78.6491 152.378 77.0629 152.893C75.4974 153.429 72.9842 153.696 69.5235 153.696H61.9533V147.146C63.8896 147.146 65.1359 147.053 65.6921 146.868C66.2482 146.662 66.5263 146.219 66.5263 145.539C66.5263 145.21 66.2688 143.778 65.7539 141.244L58.9252 106.946H70.2651L74.3438 134.601L76.3213 106.946H87.6613ZM102.586 106.946L102.369 110.716C103.276 109.212 104.378 108.089 105.675 107.348C106.994 106.586 108.508 106.205 110.218 106.205C112.36 106.205 114.111 106.709 115.47 107.719C116.83 108.728 117.705 110.005 118.097 111.55C118.488 113.074 118.684 115.629 118.684 119.213V147.949H106.201V119.553C106.201 116.731 106.108 115.011 105.923 114.393C105.737 113.775 105.222 113.466 104.378 113.466C103.492 113.466 102.936 113.826 102.709 114.547C102.483 115.248 102.369 117.143 102.369 120.233V147.949H89.886V106.946H102.586ZM150.603 122.427H138.83V117.699C138.83 116.051 138.696 114.939 138.428 114.362C138.161 113.765 137.666 113.466 136.945 113.466C136.224 113.466 135.74 113.723 135.493 114.238C135.246 114.753 135.122 115.907 135.122 117.699V137.042C135.122 138.504 135.308 139.606 135.678 140.348C136.049 141.069 136.595 141.43 137.316 141.43C138.161 141.43 138.727 141.048 139.016 140.286C139.324 139.524 139.479 138.082 139.479 135.96V131.078H150.603C150.582 134.354 150.458 136.815 150.232 138.463C150.026 140.091 149.336 141.769 148.162 143.5C147.008 145.21 145.494 146.507 143.619 147.393C141.745 148.258 139.427 148.691 136.667 148.691C133.145 148.691 130.353 148.093 128.294 146.899C126.234 145.683 124.771 143.994 123.906 141.831C123.061 139.648 122.639 136.558 122.639 132.561V120.913C122.639 117.431 122.989 114.805 123.69 113.033C124.39 111.262 125.883 109.686 128.17 108.306C130.456 106.905 133.237 106.205 136.513 106.205C139.767 106.205 142.548 106.895 144.855 108.275C147.163 109.655 148.697 111.396 149.459 113.497C150.222 115.598 150.603 118.575 150.603 122.427Z" fill="white"/>
</svg>
