<svg width="248" height="46" viewBox="0 0 248 46" fill="none" xmlns="http://www.w3.org/2000/svg">
<path d="M1 3L1.5 2L2 1.5L245 1L246.5 1.5L247 3V44.5L242.5 41L237 44.5L232.5 41L227 44.5L222 41L217 44.5L211.5 41L206 44.5L201.5 41L196 44.5L191 41L185.5 44.5L181 41L175.5 44.5L170.5 41L165 44.5L160 41L155 44.5L150 41.5L144.5 44.5L139.5 41L134.5 44.5L129 41L124.5 44.5L119 41.5L113.5 44.5L108.5 41.5L103.5 44.5L98 41L93 44.5L88 41.5L83 44.5L78 41.5L73 44.5L67.5 41.5L62.5 44.5L57 41.5L52 44.5L47 41.5L42 45L36.5 41.5L31 45L26.5 41L21.5 44.5L16 41L10.5 45L6 41L1 44.5V3Z" fill="#F7F7F7" stroke="#EEEEEE"/>
</svg>
