<?xml version="1.0" encoding="iso-8859-1"?>
<!-- Uploaded to: SVG Repo, www.svgrepo.com, Generator: SVG Repo Mixer Tools -->
<svg version="1.1" id="Layer_1" xmlns="http://www.w3.org/2000/svg" xmlns:xlink="http://www.w3.org/1999/xlink" 
	 viewBox="0 0 512 512" xml:space="preserve">
<path style="fill:#CCF7F9;" d="M444.632,40.421H67.368c-33.432,0-60.632,27.199-60.632,60.632v350.316
	C6.737,484.801,33.936,512,67.368,512h377.263c33.432,0,60.632-27.199,60.632-60.632V101.053
	C505.263,67.62,478.064,40.421,444.632,40.421z"/>
<path style="fill:#99EFF2;" d="M444.632,40.421H256V512h188.632c33.432,0,60.632-27.199,60.632-60.632V101.053
	C505.263,67.62,478.064,40.421,444.632,40.421z"/>
<circle style="fill:#FFFFFF;" cx="256" cy="128" r="107.789"/>
<path style="fill:#CCF7F9;" d="M256,20.211c59.531,0,107.789,48.259,107.789,107.789S315.531,235.789,256,235.789"/>
<rect x="235.789" y="242.526" style="fill:#00A1A7;" width="40.421" height="269.474"/>
<rect x="235.789" y="33.684" style="fill:#A2001D;" width="40.421" height="94.316"/>
<g>
	<rect x="74.105" y="296.421" style="fill:#00A1A7;" width="94.316" height="40.421"/>
	<rect x="74.105" y="377.263" style="fill:#00A1A7;" width="94.316" height="40.421"/>
</g>
<g>
	<rect x="343.579" y="296.421" style="fill:#006C70;" width="94.316" height="40.421"/>
	<rect x="343.579" y="377.263" style="fill:#006C70;" width="94.316" height="40.421"/>
</g>
<path style="fill:#00A1A7;" d="M256,256c-70.579,0-128-57.421-128-128S185.421,0,256,0s128,57.421,128,128S326.579,256,256,256z
	 M256,40.421c-48.291,0-87.579,39.288-87.579,87.579s39.288,87.579,87.579,87.579s87.579-39.288,87.579-87.579
	S304.291,40.421,256,40.421z"/>
<path style="fill:#006C70;" d="M256,0v40.421c48.291,0,87.579,39.288,87.579,87.579S304.291,215.579,256,215.579V256
	c70.579,0,128-57.421,128-128S326.579,0,256,0z"/>
</svg>